<svg width="32" height="32" viewBox="0 0 32 32" fill="none" xmlns="http://www.w3.org/2000/svg">
  <path d="M15.8768 24.125C20.3929 24.125 24.0539 20.4605 24.0539 15.9401C24.0539 11.4197 20.3929 7.75513 15.8768 7.75513C11.3608 7.75513 7.69977 11.4197 7.69977 15.9401C7.69977 20.4605 11.3608 24.125 15.8768 24.125Z" fill="#1D336A"/>
  <path d="M21.8524 18.6475C21.8524 18.6158 21.8402 18.5852 21.8182 18.5623C21.7962 18.5394 21.7662 18.526 21.7345 18.5248H21.1666L20.9764 17.9526C20.9684 17.9269 20.9521 17.9045 20.9301 17.8889C20.9081 17.8734 20.8816 17.8655 20.8547 17.8665C20.8278 17.8676 20.802 17.8775 20.7813 17.8947C20.7606 17.9119 20.7461 17.9355 20.74 17.9618L20.5531 18.5243H19.9907C19.9656 18.5242 19.941 18.5318 19.9204 18.5461C19.8997 18.5605 19.884 18.5808 19.8753 18.6044C19.8665 18.628 19.8652 18.6537 19.8716 18.6781C19.8779 18.7024 19.8916 18.7242 19.9107 18.7405L20.3885 19.107L20.2106 19.6769C20.2029 19.6929 20.1989 19.7104 20.1987 19.7282C20.1987 19.7444 20.2019 19.7605 20.2081 19.7755C20.2143 19.7905 20.2234 19.8041 20.2349 19.8155C20.2464 19.827 20.26 19.836 20.275 19.8422C20.2899 19.8484 20.306 19.8515 20.3222 19.8514C20.3488 19.8514 20.3747 19.8425 20.3958 19.8262L20.8594 19.4703L21.307 19.8143C21.3241 19.8317 21.346 19.8435 21.3699 19.8483C21.3938 19.8532 21.4185 19.8508 21.441 19.8415C21.4636 19.8323 21.4828 19.8165 21.4964 19.7962C21.51 19.776 21.5173 19.7522 21.5173 19.7278C21.5173 19.7133 21.5146 19.6991 21.5095 19.6856L21.3303 19.1107L21.8012 18.7465C21.817 18.7352 21.8298 18.7204 21.8387 18.7032C21.8476 18.686 21.8523 18.6669 21.8524 18.6475Z" fill="#F1CC49"/>
  <path d="M22.6489 15.6961C22.6489 15.6644 22.6367 15.6339 22.6148 15.611C22.5929 15.5882 22.563 15.5747 22.5314 15.5734H21.9636L21.7729 15.0012C21.7649 14.9754 21.7486 14.9531 21.7266 14.9375C21.7046 14.922 21.6781 14.9141 21.6512 14.9151C21.6243 14.9162 21.5985 14.9261 21.5778 14.9433C21.557 14.9605 21.5426 14.9841 21.5365 15.0103L21.3491 15.5734H20.7872C20.771 15.5734 20.755 15.5765 20.7401 15.5827C20.7252 15.5889 20.7116 15.598 20.7002 15.6094C20.6888 15.6209 20.6797 15.6345 20.6735 15.6494C20.6674 15.6644 20.6642 15.6804 20.6642 15.6966C20.6646 15.7143 20.669 15.7317 20.6769 15.7475C20.6848 15.7633 20.6961 15.7772 20.7099 15.7882L21.1877 16.1547L21.0098 16.7246C21.0023 16.7406 20.9984 16.7581 20.9984 16.7759C20.9983 16.7988 21.0046 16.8214 21.0166 16.8409C21.0287 16.8604 21.0459 16.8762 21.0664 16.8864C21.087 16.8966 21.1099 16.9009 21.1327 16.8987C21.1555 16.8965 21.1773 16.8879 21.1955 16.8739L21.6595 16.518L22.1067 16.862C22.1238 16.8795 22.1457 16.8915 22.1697 16.8964C22.1936 16.9013 22.2185 16.899 22.2411 16.8897C22.2637 16.8804 22.2831 16.8646 22.2967 16.8442C22.3103 16.8239 22.3175 16.7999 22.3174 16.7754C22.3173 16.761 22.3145 16.7467 22.3092 16.7333L22.1277 16.1597L22.5986 15.7932C22.614 15.7821 22.6265 15.7675 22.6352 15.7507C22.644 15.7338 22.6487 15.7151 22.6489 15.6961Z" fill="#F1CC49"/>
  <path d="M21.8524 12.8328C21.8525 12.8011 21.8402 12.7705 21.8182 12.7476C21.7962 12.7247 21.7662 12.7113 21.7345 12.7101H21.1666L20.9764 12.1379C20.9684 12.1122 20.9521 12.0898 20.9301 12.0742C20.9081 12.0587 20.8816 12.0508 20.8547 12.0518C20.8278 12.0529 20.802 12.0628 20.7813 12.08C20.7606 12.0972 20.7461 12.1208 20.7401 12.1471L20.5531 12.7096H19.9907C19.9659 12.7101 19.9418 12.7181 19.9216 12.7325C19.9014 12.747 19.8861 12.7673 19.8777 12.7907C19.8693 12.8141 19.8681 12.8395 19.8744 12.8635C19.8807 12.8876 19.8942 12.9092 19.913 12.9254L20.3908 13.2919L20.2129 13.8617C20.2052 13.8778 20.2012 13.8953 20.201 13.9131C20.201 13.9293 20.2042 13.9453 20.2104 13.9603C20.2166 13.9753 20.2257 13.9889 20.2372 14.0004C20.2487 14.0118 20.2623 14.0209 20.2773 14.027C20.2922 14.0332 20.3083 14.0363 20.3245 14.0363C20.3511 14.0362 20.377 14.0274 20.3981 14.0111L20.8617 13.6551L21.3093 13.9992C21.3206 14.0108 21.3342 14.0201 21.3492 14.0264C21.3642 14.0327 21.3803 14.0359 21.3966 14.0358C21.4128 14.0359 21.4288 14.0327 21.4437 14.0266C21.4587 14.0204 21.4723 14.0113 21.4837 13.9999C21.4951 13.9884 21.5042 13.9748 21.5103 13.9598C21.5165 13.9448 21.5196 13.9288 21.5196 13.9126C21.5196 13.8982 21.5169 13.8839 21.5118 13.8705L21.3303 13.2964L21.8012 12.93C21.8167 12.9189 21.8294 12.9043 21.8383 12.8875C21.8472 12.8706 21.852 12.8519 21.8524 12.8328Z" fill="#F1CC49"/>
  <path d="M19.7301 10.7081C19.7301 10.6763 19.7178 10.6458 19.6958 10.6229C19.6738 10.6 19.6438 10.5865 19.6121 10.5853H19.0443L18.8536 10.0131C18.8456 9.9874 18.8293 9.96502 18.8074 9.94947C18.7854 9.93391 18.7589 9.92605 18.732 9.92709C18.7051 9.92814 18.6793 9.93803 18.6585 9.95524C18.6378 9.97245 18.6233 9.99602 18.6173 10.0223L18.4298 10.5853H17.8679C17.8428 10.5852 17.8183 10.5928 17.7976 10.6072C17.777 10.6215 17.7612 10.6418 17.7525 10.6654C17.7438 10.689 17.7425 10.7147 17.7488 10.7391C17.7551 10.7634 17.7688 10.7852 17.7879 10.8015L18.2671 11.1662L18.0892 11.7361C18.0817 11.7521 18.0778 11.7696 18.0778 11.7874C18.0777 11.8036 18.0809 11.8196 18.087 11.8346C18.0932 11.8496 18.1022 11.8632 18.1137 11.8747C18.1251 11.8861 18.1387 11.8952 18.1536 11.9014C18.1686 11.9075 18.1846 11.9107 18.2008 11.9106C18.2274 11.9106 18.2533 11.9017 18.2744 11.8854L18.7375 11.5327L19.1851 11.8767C19.2023 11.894 19.2242 11.9059 19.248 11.9107C19.2719 11.9156 19.2967 11.9132 19.3192 11.9039C19.3417 11.8947 19.361 11.8789 19.3746 11.8586C19.3881 11.8384 19.3954 11.8145 19.3954 11.7901C19.3954 11.7757 19.3928 11.7614 19.3877 11.748L19.2075 11.1712L19.6784 10.807C19.6943 10.7958 19.7072 10.781 19.7162 10.7638C19.7252 10.7466 19.73 10.7275 19.7301 10.7081Z" fill="#F1CC49"/>
  <path d="M16.8365 9.94589C16.8364 9.91427 16.8241 9.88389 16.8022 9.86111C16.7803 9.83832 16.7505 9.82488 16.719 9.82358H16.1511L15.9605 9.25186C15.9525 9.22611 15.9363 9.20371 15.9143 9.18812C15.8923 9.17253 15.8659 9.16462 15.839 9.16561C15.8121 9.1666 15.7863 9.17644 15.7655 9.1936C15.7447 9.21076 15.7302 9.2343 15.7241 9.26057L15.5367 9.82358H14.9752C14.9501 9.82356 14.9257 9.83125 14.9051 9.84561C14.8845 9.85997 14.8688 9.88031 14.8602 9.90389C14.8515 9.92746 14.8502 9.95313 14.8566 9.97744C14.8629 10.0017 14.8766 10.0235 14.8957 10.0398L15.3734 10.4063L15.1956 10.9762C15.1881 10.9922 15.1842 11.0097 15.1842 11.0275C15.1841 11.0504 15.1904 11.073 15.2024 11.0925C15.2144 11.112 15.2317 11.1278 15.2522 11.138C15.2727 11.1482 15.2957 11.1525 15.3185 11.1503C15.3413 11.1481 15.363 11.1395 15.3812 11.1255L15.8439 10.7709L16.291 11.115C16.3082 11.1325 16.3301 11.1444 16.354 11.1494C16.378 11.1543 16.4029 11.152 16.4255 11.1427C16.4481 11.1334 16.4674 11.1176 16.481 11.0972C16.4946 11.0768 16.5019 11.0529 16.5018 11.0284C16.5016 11.014 16.4989 10.9997 16.4936 10.9862L16.3135 10.41L16.7844 10.0435C16.8 10.0324 16.8129 10.0178 16.822 10.0009C16.831 9.98393 16.836 9.9651 16.8365 9.94589Z" fill="#F1CC49"/>
  <path d="M13.9204 10.7147C13.9203 10.683 13.908 10.6526 13.886 10.6298C13.864 10.607 13.8341 10.5936 13.8025 10.5924H13.2346L13.0444 10.0212C13.0365 9.9954 13.0202 9.973 12.9983 9.95741C12.9763 9.94182 12.9498 9.93391 12.9229 9.9349C12.896 9.93589 12.8702 9.94572 12.8495 9.96289C12.8287 9.98005 12.8141 10.0036 12.8081 10.0299L12.6206 10.5929H12.0583C12.0332 10.5928 12.0087 10.6005 11.9881 10.6149C11.9676 10.6293 11.9519 10.6496 11.9432 10.6732C11.9345 10.6967 11.9333 10.7224 11.9396 10.7467C11.946 10.771 11.9596 10.7928 11.9787 10.8091L12.4565 11.1756L12.2777 11.7459C12.2703 11.762 12.2664 11.7795 12.2663 11.7972C12.2663 11.8201 12.2726 11.8426 12.2847 11.8621C12.2968 11.8816 12.314 11.8973 12.3345 11.9074C12.355 11.9176 12.378 11.9218 12.4007 11.9195C12.4235 11.9173 12.4452 11.9087 12.4633 11.8948L12.9269 11.5389L13.3745 11.8829C13.3859 11.8946 13.3994 11.9039 13.4145 11.9102C13.4295 11.9165 13.4456 11.9197 13.4619 11.9195C13.478 11.9196 13.494 11.9165 13.5089 11.9103C13.5238 11.9042 13.5374 11.8951 13.5488 11.8837C13.5602 11.8723 13.5693 11.8588 13.5755 11.8439C13.5817 11.8289 13.5849 11.8129 13.5849 11.7968C13.5847 11.7824 13.582 11.7681 13.5771 11.7546L13.3969 11.1783L13.8674 10.8141C13.8836 10.8031 13.8969 10.7882 13.9061 10.7709C13.9153 10.7536 13.9202 10.7343 13.9204 10.7147Z" fill="#F1CC49"/>
  <path d="M11.8562 12.8402C11.8562 12.8084 11.8439 12.7778 11.8219 12.7549C11.7999 12.732 11.7699 12.7186 11.7382 12.7174H11.1704L10.9802 12.1452C10.9721 12.1195 10.9559 12.0971 10.9339 12.0815C10.9119 12.066 10.8854 12.0581 10.8585 12.0592C10.8316 12.0602 10.8058 12.0701 10.7851 12.0873C10.7643 12.1045 10.7498 12.1281 10.7438 12.1544L10.5563 12.7174H9.99445C9.96933 12.7173 9.94479 12.7249 9.92414 12.7392C9.9035 12.7536 9.88774 12.7739 9.87901 12.7975C9.87028 12.8211 9.869 12.8468 9.87533 12.8711C9.88167 12.8955 9.89532 12.9173 9.91444 12.9336L10.3922 13.3001L10.2144 13.8691C10.2067 13.8851 10.2026 13.9026 10.2025 13.9204C10.2025 13.9366 10.2057 13.9527 10.2119 13.9676C10.2181 13.9826 10.2272 13.9962 10.2387 14.0077C10.2501 14.0191 10.2637 14.0282 10.2787 14.0344C10.2937 14.0405 10.3097 14.0437 10.3259 14.0436C10.3526 14.0435 10.3784 14.0347 10.3995 14.0184L10.8631 13.6625L11.3107 14.0065C11.3279 14.0238 11.3498 14.0357 11.3736 14.0405C11.3975 14.0454 11.4223 14.043 11.4448 14.0337C11.4673 14.0244 11.4866 14.0087 11.5002 13.9884C11.5137 13.9682 11.521 13.9443 11.521 13.9199C11.521 13.9055 11.5184 13.8912 11.5133 13.8778L11.3331 13.301L11.8041 12.9368C11.8197 12.9259 11.8325 12.9115 11.8416 12.8947C11.8506 12.8779 11.8556 12.8592 11.8562 12.8402Z" fill="#F1CC49"/>
  <path d="M11.089 15.7015C11.0889 15.6699 11.0766 15.6395 11.0547 15.6167C11.0329 15.5939 11.003 15.5805 10.9715 15.5792H10.4032L10.2125 15.0075C10.2045 14.9817 10.1883 14.9593 10.1664 14.9437C10.1444 14.9281 10.1179 14.9202 10.091 14.9212C10.0641 14.9222 10.0383 14.9321 10.0175 14.9492C9.99679 14.9664 9.98224 14.9899 9.97616 15.0162L9.78871 15.5792H9.22772C9.20265 15.5792 9.17817 15.5869 9.1576 15.6012C9.13702 15.6156 9.12134 15.6359 9.11267 15.6595C9.10399 15.6831 9.10275 15.7087 9.1091 15.7331C9.11544 15.7574 9.12908 15.7791 9.14817 15.7954L9.62595 16.1619L9.44809 16.7318C9.44056 16.7478 9.43666 16.7654 9.43666 16.7831C9.43666 16.7993 9.43984 16.8153 9.44603 16.8303C9.45221 16.8452 9.46127 16.8588 9.47269 16.8702C9.48411 16.8817 9.49766 16.8907 9.51259 16.8969C9.52751 16.9031 9.5435 16.9063 9.55965 16.9063C9.58651 16.9063 9.61258 16.8973 9.63372 16.8807L10.0978 16.5261L10.5449 16.8701C10.562 16.8876 10.584 16.8996 10.6079 16.9045C10.6319 16.9095 10.6567 16.9071 10.6794 16.8978C10.702 16.8886 10.7213 16.8727 10.7349 16.8524C10.7485 16.832 10.7557 16.808 10.7557 16.7836C10.7556 16.7691 10.7528 16.7548 10.7475 16.7414L10.5673 16.1651L11.0382 15.8009C11.0539 15.7895 11.0666 15.7745 11.0754 15.7573C11.0842 15.74 11.0889 15.7209 11.089 15.7015Z" fill="#F1CC49"/>
  <path d="M11.8562 18.6554C11.8562 18.6236 11.8439 18.593 11.8219 18.5701C11.7999 18.5472 11.7699 18.5338 11.7382 18.5326H11.1704L10.9802 17.9604C10.9721 17.9347 10.9559 17.9123 10.9339 17.8967C10.9119 17.8812 10.8854 17.8733 10.8585 17.8744C10.8316 17.8754 10.8058 17.8853 10.7851 17.9025C10.7643 17.9197 10.7498 17.9433 10.7438 17.9696L10.5563 18.5326H9.99445C9.96933 18.5325 9.94479 18.5401 9.92414 18.5544C9.9035 18.5687 9.88774 18.5891 9.87901 18.6127C9.87028 18.6363 9.869 18.662 9.87533 18.6863C9.88167 18.7107 9.89532 18.7325 9.91444 18.7488L10.3922 19.1153L10.2144 19.687C10.2067 19.703 10.2026 19.7205 10.2025 19.7383C10.2025 19.7545 10.2057 19.7706 10.2119 19.7856C10.2181 19.8006 10.2272 19.8142 10.2387 19.8256C10.2501 19.8371 10.2637 19.8461 10.2787 19.8523C10.2937 19.8585 10.3097 19.8616 10.3259 19.8615C10.3526 19.8615 10.3784 19.8526 10.3995 19.8364L10.8631 19.4804L11.3107 19.8244C11.3279 19.8418 11.3498 19.8536 11.3736 19.8584C11.3975 19.8633 11.4223 19.8609 11.4448 19.8517C11.4673 19.8424 11.4866 19.8266 11.5002 19.8064C11.5137 19.7861 11.521 19.7623 11.521 19.7379C11.521 19.7235 11.5184 19.7092 11.5133 19.6957L11.3331 19.119L11.8041 18.7525C11.8197 18.7415 11.8326 18.727 11.8417 18.7101C11.8507 18.6933 11.8557 18.6745 11.8562 18.6554Z" fill="#F1CC49"/>
  <path d="M13.9506 20.7509C13.9504 20.7192 13.9381 20.6888 13.9161 20.6659C13.8942 20.6431 13.8643 20.6295 13.8327 20.6281H13.2648L13.0742 20.0537C13.0661 20.0279 13.0499 20.0055 13.0279 19.99C13.0059 19.9744 12.9794 19.9666 12.9525 19.9676C12.9256 19.9687 12.8998 19.9786 12.879 19.9958C12.8583 20.013 12.8438 20.0365 12.8378 20.0628L12.6503 20.6258H12.0884C12.0559 20.626 12.0246 20.639 12.0016 20.6621C11.9786 20.6852 11.9656 20.7164 11.9655 20.7491C11.9656 20.7666 11.9696 20.7839 11.9771 20.7997C11.9846 20.8155 11.9955 20.8295 12.0089 20.8407L12.4867 21.2072L12.3088 21.7771C12.3015 21.7933 12.2976 21.811 12.2974 21.8288C12.2974 21.8517 12.3037 21.8742 12.3158 21.8937C12.3279 21.9132 12.3451 21.9289 12.3656 21.939C12.3861 21.9492 12.4091 21.9534 12.4318 21.9511C12.4546 21.9489 12.4763 21.9403 12.4944 21.9264L12.958 21.5705L13.4052 21.9145C13.4223 21.9319 13.4442 21.9439 13.4681 21.9489C13.492 21.9538 13.5168 21.9515 13.5394 21.9423C13.562 21.9331 13.5814 21.9173 13.595 21.897C13.6086 21.8767 13.6159 21.8528 13.616 21.8284C13.6158 21.814 13.6132 21.7997 13.6082 21.7862L13.428 21.2099L13.8985 20.8434C13.9136 20.8329 13.9261 20.8192 13.9351 20.8031C13.9441 20.7871 13.9494 20.7693 13.9506 20.7509Z" fill="#F1CC49"/>
  <path d="M16.8689 21.5103C16.8688 21.4786 16.8565 21.4482 16.8345 21.4254C16.8125 21.4026 16.7826 21.3892 16.751 21.388H16.1836L15.9929 20.8163C15.9851 20.7904 15.969 20.7679 15.947 20.7522C15.9251 20.7365 15.8986 20.7286 15.8716 20.7296C15.8447 20.7306 15.8188 20.7405 15.7981 20.7577C15.7774 20.775 15.7629 20.7986 15.757 20.825L15.5696 21.3871H15.0072C14.9821 21.3871 14.9577 21.3948 14.9371 21.4091C14.9165 21.4235 14.9008 21.4438 14.8921 21.4674C14.8835 21.491 14.8822 21.5166 14.8886 21.5409C14.8949 21.5652 14.9086 21.587 14.9277 21.6033L15.4054 21.9698L15.2276 22.5397C15.22 22.5557 15.2161 22.5732 15.2161 22.591C15.2161 22.6139 15.2225 22.6364 15.2346 22.6558C15.2466 22.6753 15.2639 22.691 15.2844 22.7012C15.3049 22.7113 15.3278 22.7155 15.3506 22.7133C15.3734 22.7111 15.395 22.7025 15.4132 22.6886L15.8773 22.3326L16.3244 22.6767C16.3358 22.6883 16.3493 22.6976 16.3643 22.7039C16.3793 22.7102 16.3955 22.7134 16.4117 22.7133C16.4279 22.7134 16.4438 22.7102 16.4588 22.7041C16.4737 22.6979 16.4872 22.6889 16.4987 22.6775C16.5101 22.6661 16.5192 22.6525 16.5253 22.6376C16.5315 22.6227 16.5347 22.6067 16.5347 22.5905C16.5347 22.5761 16.5321 22.5618 16.5269 22.5484L16.3468 21.9739L16.8177 21.6097C16.8336 21.5985 16.8465 21.5836 16.8554 21.5663C16.8643 21.549 16.8689 21.5298 16.8689 21.5103Z" fill="#F1CC49"/>
  <path d="M19.7301 20.7435C19.73 20.7118 19.7177 20.6814 19.6957 20.6586C19.6737 20.6358 19.6438 20.6224 19.6121 20.6212H19.0443L18.8536 20.0495C18.8457 20.0237 18.8294 20.0013 18.8075 19.9857C18.7855 19.9701 18.759 19.9622 18.7321 19.9632C18.7052 19.9642 18.6794 19.974 18.6587 19.9912C18.6379 20.0084 18.6234 20.0319 18.6173 20.0582L18.4298 20.6212H17.8679C17.8428 20.6211 17.8183 20.6287 17.7976 20.643C17.777 20.6573 17.7612 20.6777 17.7525 20.7013C17.7438 20.7249 17.7425 20.7506 17.7488 20.7749C17.7551 20.7993 17.7688 20.8211 17.7879 20.8374L18.2657 21.2039L18.0878 21.7738C18.0803 21.7898 18.0764 21.8073 18.0764 21.8251C18.0764 21.8578 18.0894 21.8891 18.1124 21.9122C18.1355 21.9353 18.1668 21.9483 18.1994 21.9483C18.226 21.9483 18.2519 21.9394 18.273 21.9231L18.7366 21.5672L19.1842 21.9112C19.2014 21.9285 19.2232 21.9404 19.2471 21.9452C19.271 21.9501 19.2957 21.9477 19.3183 21.9384C19.3408 21.9291 19.3601 21.9134 19.3736 21.8931C19.3872 21.8729 19.3945 21.849 19.3945 21.8246C19.3945 21.8102 19.3919 21.7959 19.3867 21.7825L19.2066 21.2057L19.6775 20.8415C19.6934 20.8305 19.7064 20.8159 19.7156 20.7989C19.7247 20.7818 19.7297 20.7628 19.7301 20.7435Z" fill="#F1CC49"/>
  <path d="M17.0861 15.401H17.0783V14.7597C17.078 14.4507 16.9553 14.1545 16.7373 13.936C16.5192 13.7175 16.2236 13.5946 15.9152 13.5942C15.7623 13.5941 15.6108 13.6242 15.4694 13.6827C15.328 13.7413 15.1996 13.8272 15.0914 13.9355C14.9831 14.0438 14.8973 14.1724 14.8387 14.314C14.7801 14.4556 14.7499 14.6073 14.7498 14.7606V15.4019C14.6274 15.4051 14.5111 15.4561 14.4257 15.544C14.3403 15.6319 14.2926 15.7497 14.2926 15.8724V17.8958C14.2927 18.0208 14.3423 18.1406 14.4306 18.2289C14.5188 18.3172 14.6384 18.3668 14.7631 18.3668H17.0879C17.2126 18.3668 17.3322 18.3172 17.4204 18.2289C17.5087 18.1406 17.5583 18.0208 17.5584 17.8958V15.8719C17.5583 15.8099 17.5461 15.7485 17.5223 15.6913C17.4985 15.634 17.4637 15.582 17.4198 15.5383C17.3759 15.4945 17.3239 15.4599 17.2666 15.4363C17.2093 15.4128 17.148 15.4008 17.0861 15.401ZM16.1443 17.0607V17.4345C16.1443 17.4932 16.121 17.5495 16.0796 17.591C16.0382 17.6325 15.982 17.6558 15.9234 17.6558C15.8649 17.6558 15.8087 17.6325 15.7673 17.591C15.7259 17.5495 15.7026 17.4932 15.7026 17.4345V17.0607C15.6043 17.011 15.5256 16.9294 15.4793 16.8293C15.4329 16.7293 15.4216 16.6164 15.4471 16.5091C15.4726 16.4017 15.5335 16.3062 15.62 16.2378C15.7064 16.1694 15.8133 16.1322 15.9234 16.1322C16.0336 16.1322 16.1405 16.1694 16.2269 16.2378C16.3133 16.3062 16.3742 16.4017 16.3998 16.5091C16.4253 16.6164 16.414 16.7293 16.3676 16.8293C16.3212 16.9294 16.2426 17.011 16.1443 17.0607ZM16.58 15.401H15.2495V14.7111C15.2496 14.6236 15.2668 14.537 15.3003 14.4562C15.3338 14.3754 15.3828 14.302 15.4446 14.2402C15.5063 14.1784 15.5796 14.1294 15.6603 14.096C15.741 14.0626 15.8275 14.0454 15.9148 14.0455C16.091 14.0455 16.26 14.1156 16.3847 14.2404C16.5093 14.3652 16.5794 14.5345 16.5795 14.7111L16.58 15.401Z" fill="white"/>
  <path d="M14.5061 31.9642C11.6467 31.6986 8.91137 30.6662 6.58775 28.9754C4.26413 27.2846 2.43797 24.9978 1.30121 22.3554C1.26542 22.2676 1.26548 22.1691 1.30138 22.0813C1.33727 21.9934 1.40614 21.9232 1.49316 21.8857C1.58018 21.8482 1.67842 21.8464 1.76675 21.8807C1.85508 21.915 1.92646 21.9827 1.96552 22.0691C3.05058 24.5924 4.79401 26.7763 7.01258 28.3911C9.23115 30.0059 11.8429 30.9921 14.5733 31.2459C14.6653 31.2552 14.7501 31.2994 14.8105 31.3694C14.8709 31.4394 14.9022 31.53 14.898 31.6225C14.8938 31.715 14.8544 31.8023 14.7879 31.8665C14.7213 31.9308 14.6328 31.967 14.5404 31.9679L14.5061 31.9642Z" fill="#5FA7F3"/>
  <path d="M17.6009 31.9547C17.5114 31.955 17.425 31.9218 17.3586 31.8617C17.2923 31.8015 17.2507 31.7187 17.242 31.6295C17.2322 31.5344 17.2603 31.4392 17.3203 31.3649C17.3803 31.2905 17.4672 31.243 17.5621 31.2327C20.5196 30.9316 23.325 29.7715 25.6336 27.8949C27.9423 26.0184 29.6537 23.5071 30.5577 20.6695C31.4616 17.8319 31.5188 14.7915 30.7222 11.9218C29.9256 9.05208 28.3098 6.47797 26.0733 4.5156C26.0376 4.48434 26.0085 4.44633 25.9874 4.40375C25.9664 4.36117 25.954 4.31486 25.9508 4.26746C25.9477 4.22007 25.9539 4.17252 25.9691 4.12753C25.9843 4.08254 26.0083 4.041 26.0395 4.00527C26.1029 3.93314 26.1922 3.88912 26.288 3.88285C26.3837 3.87659 26.478 3.90858 26.5502 3.97183C28.8912 6.02749 30.5823 8.72323 31.416 11.7282C32.2497 14.7332 32.1896 17.9167 31.2432 20.888C30.2969 23.8593 28.5053 26.4891 26.0885 28.4546C23.6716 30.4202 20.7346 31.636 17.638 31.9529C17.6257 31.9542 17.6133 31.9548 17.6009 31.9547Z" fill="#5FA7F3"/>
  <path d="M16.0021 28.0172C9.39184 28.0172 4.01422 22.634 4.01422 16.0176C4.01422 15.8444 4.01788 15.6721 4.02519 15.5008C4.03176 15.4067 4.0747 15.3189 4.14489 15.256C4.21508 15.1931 4.30698 15.1601 4.40105 15.164C4.49513 15.168 4.58397 15.2085 4.64867 15.2771C4.71338 15.3456 4.74886 15.4367 4.74757 15.5311C4.74071 15.6928 4.73751 15.8545 4.73751 16.0176C4.73751 22.235 9.79052 27.2915 16.0021 27.2915C22.2136 27.2915 27.2671 22.235 27.2671 16.0176C27.2675 14.0931 26.7763 12.2006 25.8401 10.5203C25.7958 10.4366 25.7859 10.3388 25.8127 10.2479C25.8395 10.157 25.9007 10.0802 25.9833 10.034C26.0659 9.98781 26.1632 9.97587 26.2545 10.0007C26.3458 10.0256 26.4237 10.0853 26.4715 10.1671C27.4677 11.9555 27.9904 13.9695 27.9899 16.0176C27.9899 22.634 22.6105 28.0172 16.0021 28.0172Z" fill="#5FA7F3"/>
  <path d="M16.0021 26.1285C13.7375 26.1368 11.537 25.3752 9.76036 23.9681C9.68488 23.9087 9.63604 23.8217 9.62459 23.7262C9.61315 23.6307 9.64003 23.5345 9.69932 23.4589C9.75862 23.3833 9.84547 23.3343 9.94077 23.3229C10.0361 23.3114 10.132 23.3383 10.2075 23.3978C12.134 24.912 14.5747 25.612 17.009 25.3484C19.4433 25.0849 21.6785 23.8788 23.2378 21.9873C23.2998 21.9164 23.3868 21.8725 23.4805 21.865C23.5743 21.8574 23.6672 21.8866 23.7398 21.9466C23.8123 22.0065 23.8587 22.0924 23.8691 22.186C23.8795 22.2796 23.8532 22.3736 23.7956 22.4481C22.8487 23.6005 21.6587 24.5283 20.3111 25.1647C18.9635 25.8011 17.4918 26.1303 16.0021 26.1285Z" fill="#5FA7F3"/>
  <path d="M23.9675 27.3612C22.4864 28.412 20.8127 29.1593 19.0426 29.5603C17.2724 29.9612 15.4407 30.0079 13.6525 29.6976C13.6057 29.6896 13.561 29.6724 13.5208 29.6471C13.4807 29.6218 13.4459 29.5888 13.4184 29.55C13.391 29.5112 13.3715 29.4674 13.361 29.421C13.3505 29.3746 13.3492 29.3266 13.3572 29.2798C13.3651 29.2329 13.3822 29.1881 13.4075 29.1479C13.4328 29.1076 13.4657 29.0728 13.5045 29.0454C13.5432 29.0179 13.587 28.9984 13.6332 28.9879C13.6795 28.9774 13.7274 28.9762 13.7741 28.9843C15.5309 29.2849 17.3303 29.2242 19.0629 28.8057C20.7955 28.3873 22.4249 27.6199 23.852 26.5504C25.2792 25.4808 26.4741 24.1314 27.3642 22.5843C28.2542 21.0372 28.8207 19.3248 29.0291 17.5514C29.0403 17.456 29.0888 17.369 29.164 17.3094C29.2392 17.2499 29.3349 17.2227 29.4301 17.2339C29.5253 17.2451 29.6122 17.2937 29.6716 17.369C29.731 17.4444 29.7581 17.5403 29.747 17.6357C29.5189 19.5724 28.8864 21.4393 27.8906 23.115C26.8948 24.7906 25.5581 26.2374 23.9675 27.3612Z" fill="#5FA7F3"/>
  <path d="M11.3926 28.9477C11.3442 28.982 11.2882 29.0038 11.2294 29.0112C11.1706 29.0186 11.1109 29.0114 11.0556 28.9903C8.90275 28.1711 6.98786 26.8268 5.48436 25.079C3.98085 23.3313 2.93624 21.2354 2.44513 18.981C1.95401 16.7267 2.03191 14.3853 2.67178 12.1687C3.31164 9.95219 4.49325 7.93061 6.10958 6.28707C6.12471 6.27139 6.14124 6.25713 6.15896 6.24446C6.23272 6.19295 6.32299 6.17084 6.41215 6.18247C6.50131 6.19411 6.58293 6.23864 6.64106 6.30736C6.69919 6.37609 6.72965 6.46407 6.72648 6.5541C6.72331 6.64413 6.68675 6.72974 6.62393 6.79419C5.09174 8.35202 3.97163 10.2682 3.36505 12.3693C2.75847 14.4703 2.6846 16.6897 3.15012 18.8266C3.61563 20.9635 4.60583 22.9502 6.03103 24.6068C7.45622 26.2635 9.27138 27.5377 11.3121 28.3141C11.3734 28.3373 11.4272 28.3768 11.4678 28.4283C11.5084 28.4799 11.5343 28.5415 11.5425 28.6066C11.5508 28.6718 11.5412 28.7379 11.5148 28.798C11.4884 28.8581 11.4461 28.9098 11.3926 28.9477Z" fill="#5FA7F3"/>
  <path d="M29.5019 14.0708C29.4579 14.1023 29.4072 14.1232 29.3538 14.1317C29.2593 14.1475 29.1625 14.1251 29.0845 14.0695C29.0065 14.0138 28.9537 13.9295 28.9377 13.8349C28.584 11.753 27.7359 9.78683 26.4647 8.10227C25.1936 6.41771 23.5368 5.06416 21.6341 4.15576C19.7314 3.24736 17.6385 2.81077 15.5321 2.88282C13.4256 2.95486 11.3673 3.53342 9.53084 4.5697C9.4502 4.61498 9.3553 4.62756 9.26568 4.60484C9.17606 4.58213 9.09855 4.52585 9.0491 4.44759C8.99965 4.36933 8.98203 4.27506 8.99986 4.18417C9.01769 4.09329 9.06963 4.01272 9.14496 3.95904C9.15483 3.9521 9.16506 3.94568 9.1756 3.9398C11.113 2.84542 13.2848 2.23415 15.5076 2.15761C17.7303 2.08107 19.9389 2.5415 21.9467 3.50003C23.9545 4.45856 25.7027 5.88705 27.0437 7.66491C28.3847 9.44277 29.2791 11.5178 29.6514 13.7148C29.6625 13.7823 29.6544 13.8515 29.6279 13.9144C29.6015 13.9774 29.5578 14.0316 29.5019 14.0708Z" fill="#5FA7F3"/>
  <path d="M7.92608 21.8304C7.86689 21.8305 7.8086 21.8159 7.75631 21.7881C7.70402 21.7603 7.65933 21.7201 7.62615 21.671C6.2229 19.5868 5.64524 17.0535 6.00597 14.5655C6.3667 12.0775 7.63991 9.81352 9.57703 8.21557C9.6136 8.18528 9.65576 8.1625 9.70111 8.14854C9.74646 8.13457 9.79411 8.1297 9.84134 8.13419C9.88857 8.13867 9.93446 8.15244 9.97638 8.17469C10.0183 8.19695 10.0554 8.22726 10.0857 8.2639C10.1159 8.30054 10.1386 8.34278 10.1526 8.38822C10.1665 8.43366 10.1714 8.48141 10.1669 8.52873C10.1624 8.57605 10.1487 8.62203 10.1265 8.66404C10.1043 8.70604 10.074 8.74325 10.0374 8.77354C8.23893 10.2571 7.05677 12.359 6.72175 14.6689C6.38672 16.9788 6.92288 19.3309 8.22554 21.2661C8.25239 21.3055 8.27118 21.3498 8.28084 21.3965C8.2905 21.4432 8.29083 21.4914 8.28182 21.5382C8.27281 21.5851 8.25464 21.6297 8.22834 21.6695C8.20205 21.7092 8.16815 21.7434 8.12862 21.77C8.06868 21.81 7.99811 21.8311 7.92608 21.8304Z" fill="#5FA7F3"/>
  <path d="M24.9989 20.1194C24.9518 20.1195 24.9051 20.11 24.8617 20.0915C24.818 20.0732 24.7783 20.0465 24.7448 20.0129C24.7114 19.9792 24.6849 19.9393 24.6669 19.8954C24.6489 19.8515 24.6397 19.8044 24.6399 19.757C24.6401 19.7095 24.6496 19.6625 24.6679 19.6187C25.1418 18.4776 25.3847 17.2535 25.3825 16.0176C25.3825 10.841 21.1762 6.63008 16.0044 6.63008C14.7218 6.62749 13.4526 6.88995 12.2759 7.40106C12.2306 7.42105 12.1817 7.43135 12.1323 7.4313C12.0491 7.43153 11.9685 7.403 11.9039 7.35053C11.8393 7.29806 11.7947 7.22486 11.7777 7.14329C11.7607 7.06173 11.7724 6.97678 11.8107 6.90281C11.8489 6.82884 11.9115 6.77037 11.9878 6.73727C13.2554 6.1865 14.6227 5.90361 16.0044 5.90627C21.574 5.90627 26.1053 10.4415 26.1053 16.0176C26.1076 17.3488 25.8459 18.6673 25.3354 19.8963C25.3078 19.9628 25.2611 20.0196 25.2011 20.0594C25.1412 20.0991 25.0708 20.12 24.9989 20.1194Z" fill="#5FA7F3"/>
  <path d="M0.36119 16.3795C0.265433 16.3794 0.173633 16.3412 0.105923 16.2734C0.0382133 16.2056 0.000120981 16.1136 0 16.0176C0 7.18538 7.17808 0 16.0021 0C18.6332 0.000309578 21.2239 0.648944 23.5459 1.88877C23.6168 1.92691 23.673 1.98769 23.7055 2.06145C23.738 2.13522 23.7449 2.21774 23.7253 2.29594C23.7057 2.37413 23.6605 2.44351 23.597 2.49307C23.5336 2.54263 23.4554 2.56954 23.3749 2.56951C23.3154 2.5697 23.2567 2.5549 23.2044 2.52645C20.987 1.3428 18.5131 0.72374 16.0007 0.723806C7.57584 0.723806 0.721465 7.58438 0.721465 16.0176C0.721345 16.1134 0.683377 16.2053 0.615865 16.2731C0.548352 16.3409 0.456787 16.3792 0.36119 16.3795Z" fill="#5FA7F3"/>
  <path d="M5.36161 11.6818C5.31141 11.6817 5.26176 11.6712 5.21576 11.6511C5.1284 11.612 5.06008 11.5398 5.02579 11.4503C4.99151 11.3608 4.99406 11.2614 5.03288 11.1737C5.82116 9.38904 7.0313 7.82349 8.55873 6.61239C10.0862 5.40129 11.8849 4.58106 13.7996 4.22258C15.7143 3.86409 17.6873 3.97815 19.5482 4.55487C21.409 5.1316 23.1017 6.15366 24.48 7.53273C24.5455 7.60104 24.5816 7.69235 24.5806 7.78706C24.5797 7.88177 24.5417 7.97233 24.4749 8.03931C24.408 8.10628 24.3176 8.14433 24.2231 8.14529C24.1286 8.14625 24.0375 8.11004 23.9693 8.04443C22.674 6.74858 21.0832 5.78823 19.3345 5.24635C17.5858 4.70447 15.7317 4.59736 13.9324 4.93428C12.1332 5.27119 10.4428 6.042 9.00743 7.1801C7.57205 8.3182 6.43482 9.78936 5.694 11.4665C5.66538 11.5308 5.61872 11.5854 5.55971 11.6236C5.5007 11.6618 5.43188 11.682 5.36161 11.6818Z" fill="#5FA7F3"/>
  <path d="M24.9486 3.40268C25.1403 3.40268 25.2957 3.24701 25.2957 3.05498C25.2957 2.86295 25.1403 2.70728 24.9486 2.70728C24.757 2.70728 24.6016 2.86295 24.6016 3.05498C24.6016 3.24701 24.757 3.40268 24.9486 3.40268Z" fill="#6BA6F1"/>
  <path d="M25.2879 9.34262C25.4795 9.34262 25.6349 9.18695 25.6349 8.99492C25.6349 8.80289 25.4795 8.64722 25.2879 8.64722C25.0962 8.64722 24.9409 8.80289 24.9409 8.99492C24.9409 9.18695 25.0962 9.34262 25.2879 9.34262Z" fill="#6BA6F1"/>
  <path d="M29.5266 16.0465C29.7182 16.0465 29.8736 15.8908 29.8736 15.6988C29.8736 15.5067 29.7182 15.3511 29.5266 15.3511C29.3349 15.3511 29.1796 15.5067 29.1796 15.6988C29.1796 15.8908 29.3349 16.0465 29.5266 16.0465Z" fill="#6BA6F1"/>
  <path d="M24.3552 21.3927C24.5468 21.3927 24.7022 21.237 24.7022 21.045C24.7022 20.8529 24.5468 20.6973 24.3552 20.6973C24.1635 20.6973 24.0081 20.8529 24.0081 21.045C24.0081 21.237 24.1635 21.3927 24.3552 21.3927Z" fill="#6BA6F1"/>
  <path d="M16.1319 32.0001C16.3236 32.0001 16.4789 31.8444 16.4789 31.6524C16.4789 31.4604 16.3236 31.3047 16.1319 31.3047C15.9403 31.3047 15.7849 31.4604 15.7849 31.6524C15.7849 31.8444 15.9403 32.0001 16.1319 32.0001Z" fill="#6BA6F1"/>
  <path d="M12.317 29.369C12.5087 29.369 12.6641 29.2133 12.6641 29.0213C12.6641 28.8293 12.5087 28.6736 12.317 28.6736C12.1254 28.6736 11.97 28.8293 11.97 29.0213C11.97 29.2133 12.1254 29.369 12.317 29.369Z" fill="#6BA6F1"/>
  <path d="M8.84137 22.92C9.03302 22.92 9.18839 22.7643 9.18839 22.5723C9.18839 22.3803 9.03302 22.2246 8.84137 22.2246C8.64972 22.2246 8.49435 22.3803 8.49435 22.5723C8.49435 22.7643 8.64972 22.92 8.84137 22.92Z" fill="#6BA6F1"/>
  <path d="M0.703157 19.6954C0.894809 19.6954 1.05017 19.5397 1.05017 19.3477C1.05017 19.1557 0.894809 19 0.703157 19C0.511505 19 0.35614 19.1557 0.35614 19.3477C0.35614 19.5397 0.511505 19.6954 0.703157 19.6954Z" fill="#6BA6F1"/>
  <path d="M4.60266 13.6703C4.79431 13.6703 4.94968 13.5146 4.94968 13.3226C4.94968 13.1305 4.79431 12.9749 4.60266 12.9749C4.41101 12.9749 4.25565 13.1305 4.25565 13.3226C4.25565 13.5146 4.41101 13.6703 4.60266 13.6703Z" fill="#6BA6F1"/>
  <path d="M10.8759 7.98471C11.0676 7.98471 11.2229 7.82904 11.2229 7.63701C11.2229 7.44498 11.0676 7.28931 10.8759 7.28931C10.6843 7.28931 10.5289 7.44498 10.5289 7.63701C10.5289 7.82904 10.6843 7.98471 10.8759 7.98471Z" fill="#6BA6F1"/>
  <path d="M7.65448 5.52426C7.84613 5.52426 8.0015 5.36859 8.0015 5.17656C8.0015 4.98453 7.84613 4.82886 7.65448 4.82886C7.46283 4.82886 7.30746 4.98453 7.30746 5.17656C7.30746 5.36859 7.46283 5.52426 7.65448 5.52426Z" fill="#6BA6F1"/>
</svg>
